{
  "accessors": [
    {
      "bufferView": 2,
      "componentType": 5126,
      "count": 9433,
      "max": [
        26.365541458129883,
        6.701549530029297,
        31.308841705322266
      ],
      "min": [
        -26.51718521118164,
        -8.893097877502441,
        -32.56464767456055
      ],
      "type": "VEC3"
    },
    {
      "bufferView": 2,
      "byteOffset": 113196,
      "componentType": 5126,
      "count": 9433,
      "max": [
        0.9999028444290161,
        0.9998705387115479,
        0.9999557733535767
      ],
      "min": [
        -0.9997802376747131,
        -0.9999131560325623,
        -0.999961256980896
      ],
      "type": "VEC3"
    },
    {
      "bufferView": 3,
      "componentType": 5126,
      "count": 9433,
      "max": [
        0.9999275803565979,
        0.9999169111251831,
        0.9999666810035706,
        1.0
      ],
      "min": [
        -0.99985671043396,
        -0.9999591708183289,
        -0.9999770522117615,
        -1.0
      ],
      "type": "VEC4"
    },
    {
      "bufferView": 1,
      "componentType": 5126,
      "count": 9433,
      "max": [
        0.9999599456787109,
        0.9999446868896484
      ],
      "min": [
        0.0,
        -0.000188764781341888
      ],
      "type": "VEC2"
    },
    {
      "bufferView": 1,
      "byteOffset": 75464,
      "componentType": 5126,
      "count": 9433,
      "max": [
        0.9999599456787109,
        0.9999446868896484
      ],
      "min": [
        0.0,
        -0.000188764781341888
      ],
      "type": "VEC2"
    },
    {
      "bufferView": 0,
      "componentType": 5125,
      "count": 18894,
      "type": "SCALAR"
    },
    {
      "bufferView": 2,
      "byteOffset": 226392,
      "componentType": 5126,
      "count": 4722,
      "max": [
        26.440425872802734,
        6.77901554107666,
        31.32969856262207
      ],
      "min": [
        -26.397855758666992,
        -8.850380897521973,
        -32.481529235839844
      ],
      "type": "VEC3"
    },
    {
      "bufferView": 2,
      "byteOffset": 283056,
      "componentType": 5126,
      "count": 4722,
      "max": [
        0.9993190169334412,
        0.9997208118438721,
        0.99990314245224
      ],
      "min": [
        -0.9997236132621765,
        -0.9999516606330872,
        -0.9999419450759888
      ],
      "type": "VEC3"
    },
    {
      "bufferView": 3,
      "byteOffset": 150928,
      "componentType": 5126,
      "count": 4722,
      "max": [
        0.9999194741249084,
        0.9999092817306519,
        0.999963104724884,
        1.0
      ],
      "min": [
        -0.9993672370910645,
        -0.999958336353302,
        -0.9999698400497437,
        -1.0
      ],
      "type": "VEC4"
    },
    {
      "bufferView": 1,
      "byteOffset": 150928,
      "componentType": 5126,
      "count": 4722,
      "max": [
        0.9999117851257324,
        0.9999446868896484
      ],
      "min": [
        0.0,
        -0.000188764781341888
      ],
      "type": "VEC2"
    },
    {
      "bufferView": 1,
      "byteOffset": 188704,
      "componentType": 5126,
      "count": 4722,
      "max": [
        0.9999117851257324,
        0.9999446868896484
      ],
      "min": [
        0.0,
        -0.000188764781341888
      ],
      "type": "VEC2"
    },
    {
      "bufferView": 0,
      "byteOffset": 75576,
      "componentType": 5125,
      "count": 8148,
      "type": "SCALAR"
    },
    {
      "bufferView": 2,
      "byteOffset": 339720,
      "componentType": 5126,
      "count": 2181,
      "max": [
        25.034011840820313,
        6.777822971343994,
        31.295047760009766
      ],
      "min": [
        -25.152294158935547,
        -8.642059326171875,
        -32.47832107543945
      ],
      "type": "VEC3"
    },
    {
      "bufferView": 2,
      "byteOffset": 365892,
      "componentType": 5126,
      "count": 2181,
      "max": [
        0.9995664954185486,
        0.9999223351478577,
        0.9978717565536499
      ],
      "min": [
        -0.9985230565071106,
        -0.9994280338287354,
        -0.9999229311943054
      ],
      "type": "VEC3"
    },
    {
      "bufferView": 3,
      "byteOffset": 226480,
      "componentType": 5126,
      "count": 2181,
      "max": [
        0.9998170137405396,
        0.9998431205749512,
        0.999391496181488,
        1.0
      ],
      "min": [
        -0.9988051652908325,
        -0.9999843835830688,
        -0.99988853931427,
        -1.0
      ],
      "type": "VEC4"
    },
    {
      "bufferView": 1,
      "byteOffset": 226480,
      "componentType": 5126,
      "count": 2181,
      "max": [
        0.9999117851257324,
        0.9999446868896484
      ],
      "min": [
        0.0,
        0.000520989065989852
      ],
      "type": "VEC2"
    },
    {
      "bufferView": 1,
      "byteOffset": 243928,
      "componentType": 5126,
      "count": 2181,
      "max": [
        0.9999117851257324,
        0.9999446868896484
      ],
      "min": [
        0.0,
        0.000520989065989852
      ],
      "type": "VEC2"
    },
    {
      "bufferView": 0,
      "byteOffset": 108168,
      "componentType": 5125,
      "count": 2952,
      "type": "SCALAR"
    }
  ],
  "asset": {
    "extras": {
      "author": "britdawgmasterfunk (https://sketchfab.com/britdawgmasterfunk)",
      "license": "CC-BY-4.0 (http://creativecommons.org/licenses/by/4.0/)",
      "source": "https://sketchfab.com/3d-models/military-rts-character-1-cc0-908065a7006443b29edca30276750a6d",
      "title": "Military RTS Character 1 (CC0)"
    },
    "generator": "Sketchfab-12.56.0",
    "version": "2.0"
  },
  "bufferViews": [
    {
      "buffer": 0,
      "byteLength": 119976,
      "name": "floatBufferViews",
      "target": 34963
    },
    {
      "buffer": 0,
      "byteLength": 261376,
      "byteOffset": 119976,
      "byteStride": 8,
      "name": "floatBufferViews",
      "target": 34962
    },
    {
      "buffer": 0,
      "byteLength": 392064,
      "byteOffset": 381352,
      "byteStride": 12,
      "name": "floatBufferViews",
      "target": 34962
    },
    {
      "buffer": 0,
      "byteLength": 261376,
      "byteOffset": 773416,
      "byteStride": 16,
      "name": "floatBufferViews",
      "target": 34962
    }
  ],
  "buffers": [
    {
      "byteLength": 1034792,
      "uri": "scene.bin"
    }
  ],
  "images": [
    {
      "uri": "textures/soldier1_baseColor.png"
    },
    {
      "uri": "textures/soldier1_metallicRoughness.png"
    },
    {
      "uri": "textures/soldier1_normal.png"
    }
  ],
  "materials": [
    {
      "doubleSided": true,
      "name": "soldier1",
      "normalTexture": {
        "index": 2
      },
      "occlusionTexture": {
        "index": 1
      },
      "pbrMetallicRoughness": {
        "baseColorTexture": {
          "index": 0
        },
        "metallicFactor": 0.0,
        "metallicRoughnessTexture": {
          "index": 1
        }
      }
    }
  ],
  "meshes": [
    {
      "name": "soldier1_low.001_soldier1_0",
      "primitives": [
        {
          "attributes": {
            "NORMAL": 1,
            "POSITION": 0,
            "TANGENT": 2,
            "TEXCOORD_0": 3,
            "TEXCOORD_1": 4
          },
          "indices": 5,
          "material": 0,
          "mode": 4
        }
      ]
    },
    {
      "name": "soldier1_low.002_soldier1_0",
      "primitives": [
        {
          "attributes": {
            "NORMAL": 7,
            "POSITION": 6,
            "TANGENT": 8,
            "TEXCOORD_0": 9,
            "TEXCOORD_1": 10
          },
          "indices": 11,
          "material": 0,
          "mode": 4
        }
      ]
    },
    {
      "name": "soldier1_low.003_soldier1_0",
      "primitives": [
        {
          "attributes": {
            "NORMAL": 13,
            "POSITION": 12,
            "TANGENT": 14,
            "TEXCOORD_0": 15,
            "TEXCOORD_1": 16
          },
          "indices": 17,
          "material": 0,
          "mode": 4
        }
      ]
    }
  ],
  "nodes": [
    {
      "children": [
        1
      ],
      "matrix": [
        1.0,
        0.0,
        0.0,
        0.0,
        0.0,
        2.220446049250313e-16,
        -1.0,
        0.0,
        0.0,
        1.0,
        2.220446049250313e-16,
        0.0,
        0.0,
        0.0,
        0.0,
        1.0
      ],
      "name": "Sketchfab_model"
    },
    {
      "children": [
        2
      ],
      "matrix": [
        0.009999999776482582,
        0.0,
        0.0,
        0.0,
        0.0,
        0.0,
        0.009999999776482582,
        0.0,
        0.0,
        -0.009999999776482582,
        0.0,
        0.0,
        0.0,
        0.0,
        0.0,
        1.0
      ],
      "name": "1558576b60e945dc9d2d672adb16f24b.fbx"
    },
    {
      "children": [
        3,
        5,
        7
      ],
      "name": "RootNode"
    },
    {
      "children": [
        4
      ],
      "matrix": [
        14.1037015914917,
        0.0,
        0.0,
        0.0,
        0.0,
        -2.2977846452254814e-06,
        -14.103701591491513,
        0.0,
        0.0,
        14.103701591491513,
        -2.2977846452254814e-06,
        0.0,
        808.7152709960938,
        -198.79698181152344,
        -3.1768925189971924,
        1.0
      ],
      "name": "soldier1_low.001"
    },
    {
      "mesh": 0,
      "name": "soldier1_low.001_soldier1_0"
    },
    {
      "children": [
        6
      ],
      "matrix": [
        14.1037015914917,
        0.0,
        0.0,
        0.0,
        -0.0,
        -2.2977846452254814e-06,
        -14.103701591491513,
        0.0,
        0.0,
        14.103701591491513,
        -2.2977846452254814e-06,
        0.0,
        -79.71992492675781,
        -198.79698181152344,
        -3.1768925189971924,
        1.0
      ],
      "name": "soldier1_low.002"
    },
    {
      "mesh": 1,
      "name": "soldier1_low.002_soldier1_0"
    },
    {
      "children": [
        8
      ],
      "matrix": [
        14.1037015914917,
        0.0,
        0.0,
        0.0,
        -0.0,
        -2.2977846452254814e-06,
        -14.103701591491513,
        0.0,
        0.0,
        14.103701591491513,
        -2.2977846452254814e-06,
        0.0,
        -949.2113037109375,
        -198.79698181152344,
        -3.1768925189971924,
        1.0
      ],
      "name": "soldier1_low.003"
    },
    {
      "mesh": 2,
      "name": "soldier1_low.003_soldier1_0"
    }
  ],
  "samplers": [
    {
      "magFilter": 9729,
      "minFilter": 9987,
      "wrapS": 10497,
      "wrapT": 10497
    }
  ],
  "scene": 0,
  "scenes": [
    {
      "name": "Sketchfab_Scene",
      "nodes": [
        0
      ]
    }
  ],
  "textures": [
    {
      "sampler": 0,
      "source": 0
    },
    {
      "sampler": 0,
      "source": 1
    },
    {
      "sampler": 0,
      "source": 2
    }
  ]
}
